<?xml version="1.0" encoding="UTF-8"?>
<svg version="1.1" xmlns="http://www.w3.org/2000/svg" width="20" height="30">
<path d="M0 0 C0.80131348 0.17160645 1.60262695 0.34321289 2.42822266 0.52001953 C26.36419937 5.69174341 50.01507707 14.64822107 70 29 C70.93199219 29.62455078 70.93199219 29.62455078 71.8828125 30.26171875 C73 32 73 32 72.81640625 35.83984375 C72.67967876 39.59512025 72.89241676 39.87213058 75.52734375 43.00390625 C76.6386619 43.88961472 77.77719022 44.74201921 78.9375 45.5625 C79.53071045 46.00376221 80.1239209 46.44502441 80.73510742 46.8996582 C83.34870032 48.70890542 85.37773772 49.96052112 88.5859375 50.1640625 C90.04989309 49.85072464 91.50883594 49.51278298 92.9609375 49.1484375 C95 49 95 49 96.9765625 50.1015625 C99.11312703 51.96573634 101.04897279 53.9426198 103 56 C103.74765625 56.69222656 104.4953125 57.38445313 105.265625 58.09765625 C139.95757659 90.71928169 158.10256154 140.3130668 161.19775391 186.98168945 C161.6680554 193.94662587 161.6680554 193.94662587 164.875 200.0625 C171.82511228 210.61267044 172.9808657 222.44302803 170.77734375 234.69921875 C168.21231458 245.59092552 163.11428166 255.4929314 153.3972168 261.64892578 C150.664826 264.32872244 150.40582572 265.82072644 150.33235168 269.58285522 C150.34255844 270.30574738 150.3527652 271.02863953 150.36328125 271.7734375 C150.35290329 272.5336319 150.34252533 273.29382629 150.33183289 274.07705688 C150.30218211 276.51016182 150.30550096 278.94174791 150.3125 281.375 C150.30058938 284.54966357 150.27482189 287.7239641 150.23828125 290.8984375 C150.22497269 292.06076904 150.22497269 292.06076904 150.21139526 293.24658203 C149.88371122 311.3013773 145.02187601 327.6808909 132.5 341.125 C121.73129649 351.39320905 107.58270962 358.30221058 92.546875 358.1875 C89.94790408 358.12552555 87.34894596 358.06301254 84.75 358 C71.56754332 357.94838995 63.64828348 360.53560883 53.87939453 369.41210938 C50.66804333 372.12536324 47.07329813 374.16113108 43.4375 376.25 C42.78652344 376.63220703 42.13554687 377.01441406 41.46484375 377.40820312 C39.98053049 378.27893514 38.49090942 379.14061116 37 380 C37.62003906 380.34289062 38.24007813 380.68578125 38.87890625 381.0390625 C48.06832796 386.46978334 55.41373038 393.56307047 63 401 C63.90238403 401.86951294 63.90238403 401.86951294 64.82299805 402.7565918 C83.43680608 420.92558921 96.08034841 446.58825633 101 472 C101.15339844 472.78375 101.30679687 473.5675 101.46484375 474.375 C102.73002673 482.56315053 101.26828717 490.25725335 96.546875 497.1171875 C91.66507916 503.05917133 85.66844087 508.28082807 77.79218328 509.28011227 C75.22861303 509.39134623 72.68014821 509.40948863 70.11418152 509.39440918 C69.13520364 509.40050028 68.15622575 509.40659139 67.14758188 509.41286707 C63.87585699 509.42948077 60.60452199 509.42472347 57.33276367 509.41992188 C54.98345028 509.42726317 52.6341405 509.43584957 50.28483582 509.44558716 C43.90871724 509.46780637 37.53272789 509.47073358 31.15657592 509.46883965 C26.50262002 509.46873505 21.84869085 509.4751787 17.19474155 509.4824672 C16.52993447 509.48350669 15.8651274 509.48454618 15.18017465 509.48561716 C14.5129051 509.48666069 13.84563554 509.48770422 13.1581457 509.48877937 C0.54779031 509.50766767 -12.06250687 509.506636 -24.67287054 509.49981004 C-36.19557802 509.49423675 -47.71806302 509.51505325 -59.24071852 509.54817051 C-71.08579754 509.58194889 -82.9307701 509.59707062 -94.77589816 509.59245348 C-101.42054911 509.59021282 -108.06501993 509.59585447 -114.70963478 509.62034607 C-120.96012012 509.64262372 -127.21014288 509.64072619 -133.46063042 509.62041855 C-135.75110865 509.61701028 -138.04161809 509.62208958 -140.33205414 509.63640213 C-143.46631604 509.65463194 -146.59901487 509.64181658 -149.73323059 509.62145996 C-150.63315493 509.63397781 -151.53307927 509.64649566 -152.46027404 509.65939283 C-160.87944437 509.54268292 -167.62855684 506.34649211 -173.875 500.75 C-179.31224397 494.83827955 -181.64958825 487.9782551 -182 480 C-181.80745231 477.20304424 -181.34989814 474.49967124 -180.8125 471.75 C-180.67448975 471.0163623 -180.53647949 470.28272461 -180.39428711 469.52685547 C-177.13764822 453.0075682 -177.13764822 453.0075682 -173.07421875 449.19140625 C-170.30084922 447.59841622 -168.14095733 447.78584382 -165 448 C-164.773125 447.195625 -164.54625 446.39125 -164.3125 445.5625 C-162.91090608 441.75817364 -161.06214702 438.5786586 -158.92578125 435.1484375 C-157.80918461 432.55717948 -158.03589248 431.60097138 -159 429 C-160.0625 425.9375 -160.0625 425.9375 -160 422 C-155.67851819 414.15151492 -149.12504466 407.47293877 -143 401 C-141.95392578 399.87464844 -141.95392578 399.87464844 -140.88671875 398.7265625 C-134.03727268 391.58911412 -125.9850809 384.30487355 -117 380 C-117.73150269 379.56300781 -117.73150269 379.56300781 -118.4777832 379.1171875 C-127.96121917 373.43449734 -137.1686423 367.66108076 -146 361 C-149.61460155 358.59026563 -151.31800667 358.747917 -155.6171875 358.7265625 C-156.96094521 358.70623236 -158.30469511 358.68538096 -159.6484375 358.6640625 C-161.74550935 358.64172223 -163.84226883 358.6250929 -165.93945312 358.61914062 C-183.67898205 358.53442463 -198.65548447 353.72794419 -211.71484375 341.3515625 C-225.40924532 327.25920396 -230.26019524 310.79255876 -230.03515625 291.4921875 C-230.03886559 289.9127539 -230.0447905 288.33332422 -230.05273438 286.75390625 C-230.06331155 284.3063971 -230.06229471 281.86182227 -230.02416992 279.41455078 C-229.58219162 269.98832672 -229.58219162 269.98832672 -232.73120117 261.43725586 C-234.7383444 259.68753906 -236.72137476 258.36393877 -239 257 C-247.92797386 248.66672984 -251.16052286 236.88522895 -252 225 C-252.21661015 215.83866465 -249.79369828 205.64941969 -243.921875 198.453125 C-240.94271839 193.10033142 -241.00204246 187.59721464 -240.5625 181.5625 C-236.42531838 135.13799145 -218.18385229 92.89575932 -186 59 C-185.49436523 58.45649902 -184.98873047 57.91299805 -184.46777344 57.35302734 C-157.89575255 28.93204317 -122.85380438 9.70899322 -85 1 C-84.10958008 0.79117187 -83.21916016 0.58234375 -82.30175781 0.3671875 C-56.46410374 -5.40495721 -25.88969598 -5.93800367 0 0 Z " fill="#010201" transform="translate(296,3)"/>
<path d="M0 0 C1.46397217 0.22067139 1.46397217 0.22067139 2.95751953 0.44580078 C50.3549053 7.89989601 50.3549053 7.89989601 58.625 18.5 C59.81873022 20.62957217 60.9419882 22.79984535 62 25 C62.72487089 26.2047854 63.46384928 27.40116677 64.21484375 28.58984375 C72.90598685 42.61686034 79.49754641 58.49612522 81 75 C81.17015625 76.01320313 81.3403125 77.02640625 81.515625 78.0703125 C86.37482878 117.49256253 74.13109346 158.63861637 50 190 C46.15435264 194.80250891 42.12272545 199.43443568 38 204 C37.32324219 204.75023437 36.64648438 205.50046875 35.94921875 206.2734375 C18.24904535 224.84535391 -5.40520645 237.4192766 -29.5625 245.3125 C-30.25657959 245.54300049 -30.95065918 245.77350098 -31.66577148 246.01098633 C-46.0265108 250.45011599 -60.3780871 251.55070154 -75.3125 251.4375 C-76.16717865 251.43445862 -77.0218573 251.43141724 -77.9024353 251.42828369 C-90.65285911 251.36124598 -102.72543503 250.71827003 -115 247 C-116.10698242 246.68651611 -116.10698242 246.68651611 -117.23632812 246.36669922 C-142.6262933 239.10543026 -164.64147933 225.81491754 -184 208 C-184.74378906 207.32710937 -185.48757812 206.65421875 -186.25390625 205.9609375 C-207.52768907 185.76158815 -222.7849102 156.83852079 -228.6875 128.3125 C-228.89955078 127.33216797 -229.11160156 126.35183594 -229.33007812 125.34179688 C-236.7083314 90.59185319 -231.69054611 56.68799304 -212.890625 26.55078125 C-210.99112185 23.6479691 -209.0252073 20.81596069 -207 18 C-206.56042969 17.32839844 -206.12085938 16.65679687 -205.66796875 15.96484375 C-204.06659811 13.69935954 -202.77119782 12.1719333 -200.00585938 11.55541992 C-198.00390625 11.37027995 -196.00195312 11.18513997 -194 11 C-194.144375 11.83015625 -194.28875 12.6603125 -194.4375 13.515625 C-195.85458592 22.92350099 -196.27736171 32.23758933 -196.375 41.75 C-196.41367188 43.6067334 -196.41367188 43.6067334 -196.453125 45.50097656 C-196.45570313 46.67112305 -196.45828125 47.84126953 -196.4609375 49.046875 C-196.47326416 50.62227051 -196.47326416 50.62227051 -196.48583984 52.22949219 C-195.8696495 55.74332539 -194.88345213 56.9378196 -192 59 C-189.71632329 59.36083102 -189.71632329 59.36083102 -187.25 58.90625 C-186.27546875 58.77734375 -185.3009375 58.6484375 -184.296875 58.515625 C-183.20890625 58.34546875 -182.1209375 58.1753125 -181 58 C-179.80890625 57.82984375 -178.6178125 57.6596875 -177.390625 57.484375 C-126.03298345 49.85291822 -60.58851647 35.87162054 -18.76025391 3.25341797 C-12.36072431 -1.72590668 -7.8031308 -1.4063568 0 0 Z " fill="#FEDCCE" transform="translate(331,133)"/>
<path d="M0 0 C1.09828125 0.58394531 2.1965625 1.16789062 3.328125 1.76953125 C6.98412748 3.73630745 10.54451563 5.69634375 14 8 C17.32822213 8.28941062 19.34079061 8.3789603 22.26953125 6.6953125 C25 6 25 6 28.33203125 7.8515625 C29.50705923 8.75706429 30.66693775 9.68249728 31.8125 10.625 C32.40998047 11.07746094 33.00746094 11.52992187 33.62304688 11.99609375 C35.33203125 13.3515625 35.33203125 13.3515625 38 16 C38 20 38 20 37.5625 22.75 C38.3371758 28.50473452 42.85422904 31.92501736 46.89453125 35.83203125 C68.11486041 56.36086292 83.0146729 84.7916697 91 113 C91 113.66 91 114.32 91 115 C86.92151945 113.47892734 83.06560192 111.59000257 79.16308594 109.67504883 C54.43568699 97.60378009 28.65976961 89.27755032 1.55615234 84.45605469 C-0.18978938 84.14455334 -1.93422193 83.82450327 -3.67724609 83.49707031 C-10.76265349 82.16660628 -17.8642226 81.02548181 -25 80 C-26.04752441 79.84611816 -27.09504883 79.69223633 -28.17431641 79.53369141 C-47.70345372 76.8209039 -67.28585252 76.70937075 -86.96418381 76.68992615 C-89.03139943 76.68753596 -91.09859285 76.68221658 -93.165802 76.67663574 C-115.699703 76.63221616 -137.78514203 77.93493734 -160.0625 81.3125 C-160.7825824 81.42015686 -161.50266479 81.52781372 -162.24456787 81.63873291 C-174.64775358 83.50399392 -186.8687711 85.79149989 -199 89 C-199.9389209 89.24443848 -200.8778418 89.48887695 -201.84521484 89.74072266 C-222.81600959 95.28129208 -243.02953025 102.74151925 -261.96484375 113.3828125 C-265 115 -265 115 -267 115 C-264.39294293 100.4004804 -257.92878379 86.98816389 -251 74 C-250.67773438 73.38882324 -250.35546875 72.77764648 -250.0234375 72.14794922 C-245.18413483 63.04228977 -239.52235836 54.94678146 -233 47 C-232.54109375 46.4328125 -232.0821875 45.865625 -231.609375 45.28125 C-202.35697495 9.27829609 -158.7333666 -15.85903808 -112.36206055 -20.91186523 C-72.97254483 -24.79001673 -35.04009591 -18.91346667 0 0 Z " fill="#28CC68" transform="translate(344,37)"/>
<path d="M0 0 C-0.144375 0.83015625 -0.28875 1.6603125 -0.4375 2.515625 C-1.85458592 11.92350099 -2.27736171 21.23758933 -2.375 30.75 C-2.41367188 32.6067334 -2.41367188 32.6067334 -2.453125 34.50097656 C-2.45570313 35.67112305 -2.45828125 36.84126953 -2.4609375 38.046875 C-2.47326416 39.62227051 -2.47326416 39.62227051 -2.48583984 41.22949219 C-1.86991283 44.7418237 -0.87960914 45.93599552 2 48 C4.25124256 48.37026394 4.25124256 48.37026394 6.69140625 47.921875 C7.66352051 47.79361328 8.63563477 47.66535156 9.63720703 47.53320312 C10.74692871 47.35724609 11.85665039 47.18128906 13 47 C14.27085449 46.80857422 15.54170898 46.61714844 16.85107422 46.41992188 C21.22164948 45.74478287 25.57961059 45.00211803 29.9375 44.25 C30.70714081 44.11882782 31.47678162 43.98765564 32.26974487 43.85250854 C42.4572386 42.10953623 52.52408104 40.16412902 62.48999023 37.38574219 C67.82087599 35.910438 67.82087599 35.910438 70 37 C69.505 37.99 69.505 37.99 69 39 C68.87556585 41.88046207 68.81193052 44.73561529 68.796875 47.6171875 C68.78986069 48.49290909 68.78284637 49.36863068 68.77561951 50.27088928 C68.757952 53.13897742 68.75175174 56.00685918 68.75 58.875 C68.74932526 59.85228058 68.74865051 60.82956116 68.74795532 61.8364563 C68.76578618 78.07803739 69.52213164 93.92261233 72 110 C72.17692383 111.1545166 72.35384766 112.3090332 72.53613281 113.49853516 C79.61086336 158.33570913 94.05957438 199.82728015 115 240 C77.37526756 241.89174632 40.52246567 224.46458724 12.97265625 199.7265625 C11.98040413 198.81920064 10.98938178 197.9104908 10 197 C9.25621094 196.32710937 8.51242188 195.65421875 7.74609375 194.9609375 C-13.52768907 174.76158815 -28.7849102 145.83852079 -34.6875 117.3125 C-34.89955078 116.33216797 -35.11160156 115.35183594 -35.33007812 114.34179688 C-42.7083314 79.59185319 -37.69054611 45.68799304 -18.890625 15.55078125 C-16.99069055 12.64730999 -15.0372698 9.80836546 -13 7 C-12.51402344 6.32839844 -12.02804688 5.65679687 -11.52734375 4.96484375 C-9.84487824 2.78844342 -8.4981444 1.21133399 -5.9375 0.125 C-3.96200185 -0.00245149 -1.97960521 0 0 0 Z " fill="#FDCABD" transform="translate(137,144)"/>
<path d="M0 0 C3.2703964 1.6351982 4.12704842 5.18168395 5.625 8.375 C9.08072045 15.50366214 13.01108866 21.81698818 18 28 C18.56332031 28.71542969 19.12664062 29.43085938 19.70703125 30.16796875 C34.15266718 47.65835229 57.42797039 59.04065405 79.75878906 61.7890625 C107.66699038 64.41571674 132.59956094 56.71757446 154.83203125 39.8515625 C166.46753391 29.99345158 174.35810869 17.55012413 181 4 C181.66571865 2.66619308 182.33217749 1.33275479 183 0 C187.81791979 3.8513564 191.77569206 7.80579194 195.375 12.8125 C195.8397876 13.45340576 196.3045752 14.09431152 196.78344727 14.75463867 C207.54518492 29.99140897 220.44184909 52.77043843 218 72 C215.59921618 76.89390547 212.76105598 79.42393309 208 82 C204.8316978 82.5641191 201.72287131 82.54045769 198.51123047 82.50793457 C197.56295317 82.51417453 196.61467587 82.5204145 195.63766289 82.52684355 C192.46391728 82.54278318 189.29093865 82.53016518 186.1171875 82.51757812 C183.84034782 82.52299879 181.56351165 82.53012114 179.28668213 82.53881836 C173.10492613 82.55706102 166.92343702 82.5499801 160.74167633 82.53730202 C154.27422869 82.52717934 147.806804 82.53656567 141.33935547 82.54284668 C129.78232358 82.55059149 118.22542821 82.53815602 106.66841769 82.51780933 C96.1935985 82.49993871 85.71895662 82.50304295 75.24414062 82.52148438 C63.07477301 82.54289917 50.90554454 82.55085391 38.73615456 82.53903532 C32.29620735 82.53279719 25.85638225 82.5319737 19.41644287 82.54518127 C13.36217838 82.55673041 7.30824896 82.54873069 1.25402069 82.52560425 C-0.96878757 82.52031222 -3.191624 82.52183933 -5.41442108 82.53065491 C-8.44707243 82.54157405 -11.47864781 82.52788992 -14.51123047 82.50793457 C-15.39236071 82.51685746 -16.27349094 82.52578034 -17.1813221 82.53497362 C-22.60784167 82.46563948 -25.69150772 81.6017601 -30 78 C-33.37940566 74.1759357 -34.67522384 71.05460634 -34.47265625 65.90234375 C-33.69937198 61.15399487 -32.261798 56.59941497 -30.77954102 52.02807617 C-29.02158565 46.63266397 -29.02158565 46.63266397 -29 41 C-29.680625 40.34 -30.36125 39.68 -31.0625 39 C-31.701875 38.34 -32.34125 37.68 -33 37 C-32.68148162 32.51685377 -30.58911852 29.06041333 -28.4375 25.1875 C-27.9434668 24.2912793 -27.9434668 24.2912793 -27.43945312 23.37695312 C-26.63226733 21.91466002 -25.81695083 20.4568601 -25 19 C-23.07942708 19.16276042 -21.15885417 19.32552083 -19.23828125 19.48828125 C-14.01279519 18.34834101 -10.57188516 12.36286706 -7.375 8.375 C-5.02397675 5.4462509 -2.72644273 2.58751572 0 0 Z " fill="#F4C955" transform="translate(164,415)"/>
<path d="M0 0 C3.23921281 -0.03118912 6.20638351 0.37931416 9.40234375 0.91015625 C11.3318099 1.07377179 13.26128386 1.23730311 15.19091797 1.39892578 C39.52750065 3.71696677 62.96384417 11.33837436 84.40234375 22.91015625 C85.500625 23.49410156 86.59890625 24.07804687 87.73046875 24.6796875 C91.38647123 26.6464637 94.94685938 28.6065 98.40234375 30.91015625 C101.73056588 31.19956687 103.74313436 31.28911655 106.671875 29.60546875 C109.40234375 28.91015625 109.40234375 28.91015625 112.734375 30.76171875 C113.90940298 31.66722054 115.0692815 32.59265353 116.21484375 33.53515625 C116.81232422 33.98761719 117.40980469 34.44007812 118.02539062 34.90625 C119.734375 36.26171875 119.734375 36.26171875 122.40234375 38.91015625 C122.40234375 42.91015625 122.40234375 42.91015625 121.96484375 45.66015625 C122.73951955 51.41489077 127.25657279 54.83517361 131.296875 58.7421875 C152.51720416 79.27101917 167.41701665 107.70182595 175.40234375 135.91015625 C175.40234375 136.57015625 175.40234375 137.23015625 175.40234375 137.91015625 C171.3238632 136.38908359 167.46794567 134.50015882 163.56542969 132.58520508 C138.83803074 120.51393634 113.06211336 112.18770657 85.95849609 107.36621094 C84.21255437 107.05470959 82.46812182 106.73465952 80.72509766 106.40722656 C51.28796441 100.879662 22.15080594 99.44719302 -7.70782471 99.7041626 C-11.7791241 99.73566825 -15.85048713 99.74872195 -19.921875 99.76367188 C-27.81396457 99.79519889 -35.70575755 99.84591828 -43.59765625 99.91015625 C-43.28364337 98.30454054 -42.96767564 96.69930705 -42.65087891 95.09423828 C-42.47513336 94.20028351 -42.29938782 93.30632874 -42.11831665 92.38528442 C-41.28611521 88.4291448 -39.94613012 84.71040078 -38.59765625 80.91015625 C-26.42861787 79.89842259 -14.30451776 79.67349989 -2.09765625 79.66015625 C-1.1166394 79.65781982 -0.13562256 79.6554834 0.87512207 79.65307617 C16.17462687 79.63940203 31.13236348 80.44412383 46.32421875 82.25390625 C55.31114634 83.60477977 55.31114634 83.60477977 63.9296875 81.70703125 C66.4239443 78.66364099 65.99942932 76.00471367 65.84375 72.203125 C63.83237513 57.19791248 56.09103045 43.53868481 44.40234375 33.91015625 C33.63225538 26.02867062 20.43314069 21.05478783 7.12890625 20.59375 C5.97519531 20.55185547 4.82148438 20.50996094 3.6328125 20.46679688 C2.44300781 20.42748047 1.25320313 20.38816406 0.02734375 20.34765625 C-1.18566406 20.30447266 -2.39867187 20.26128906 -3.6484375 20.21679688 C-6.63140657 20.11110112 -9.61445367 20.00900304 -12.59765625 19.91015625 C-7.26708345 2.54621119 -7.26708345 2.54621119 0 0 Z " fill="#72D88A" transform="translate(259.59765625,14.08984375)"/>
<path d="M0 0 C3.02681078 0.03223389 6.04829945 0.00011761 9.07495117 -0.03808594 C21.0158734 -0.0627531 30.29329555 1.24082667 40.96362305 6.78222656 C41.92365234 7.26941162 42.88368164 7.75659668 43.87280273 8.25854492 C57.64125063 15.55537473 66.83313981 28.63126335 71.52099609 43.20996094 C73.12981986 48.72108321 74.19111956 54.10125097 72.96362305 59.78222656 C71.02612305 62.46972656 71.02612305 62.46972656 67.96362305 63.78222656 C61.6809959 64.06808927 55.67510498 63.45925868 49.44018555 62.71435547 C15.58054233 58.78802106 -18.52352359 60.26101874 -52.37573242 63.50683594 C-62.17827393 64.24428204 -62.17827393 64.24428204 -65.47387695 62.46972656 C-68.68303097 56.94998166 -67.59126686 51.16032617 -66.1887207 45.14941406 C-61.28021315 28.94301962 -51.08470334 14.97231534 -36.03637695 6.78222656 C-24.11574064 0.91551155 -13.18925979 -0.16683082 0 0 Z " fill="#010302" transform="translate(253.036376953125,34.2177734375)"/>
<path d="M0 0 C3.37366139 0.00540375 6.74719199 -0.00000574 10.12084961 -0.00634766 C20.59288754 -0.00923355 30.99314794 -0.00796246 41.41577148 1.13037109 C24.75244456 19.3097366 -12.69261433 26.97976645 -35.58422852 34.13037109 C-36.44467773 34.40187988 -37.30512695 34.67338867 -38.19165039 34.953125 C-83.48996082 49.08920144 -83.48996082 49.08920144 -104.58422852 48.13037109 C-105.00022851 35.3037046 -102.92264972 23.48252956 -99.58422852 11.13037109 C-87.86118365 7.58619474 -76.01124799 5.43422368 -63.89404297 3.82275391 C-61.54763882 3.50883753 -59.20373985 3.17960449 -56.85961914 2.84912109 C-37.94283729 0.24929497 -19.07243664 -0.03633111 0 0 Z " fill="#5870A3" transform="translate(253.584228515625,127.86962890625)"/>
<path d="M0 0 C2.41795276 2.41795276 2.78196896 4.17251813 3.75 7.4375 C9.0880404 23.76333158 19.15800612 35.7781583 34.14599609 44.06152344 C47.69672299 50.92075364 63.98160257 53.6664932 78.875 49.8125 C80.59508161 49.2426409 82.30388292 48.63765741 84 48 C84.96035156 47.67128906 85.92070312 47.34257812 86.91015625 47.00390625 C103.87200633 40.67877764 114.79014115 28.83518618 122.30078125 12.84375 C124.19927394 8.64545722 125.73363322 4.43228372 127 0 C132.63098876 3.00064027 137.88084541 6.18786361 143 10 C140.98803673 21.56878879 134.91615391 30.81139552 128 40 C127.484375 40.6909375 126.96875 41.381875 126.4375 42.09375 C114.50654407 57.00744491 93.99409209 67.15892565 75.30859375 69.71484375 C53.45641701 71.59820727 31.91363976 67.75112715 14.3125 53.8125 C12.86378071 52.55447137 11.42654316 51.28312051 10 50 C9.02289063 49.21882813 8.04578125 48.43765625 7.0390625 47.6328125 C-3.38037445 38.96338043 -10.51236666 25.5998936 -15 13 C-15 12.01 -15 11.02 -15 10 C-13.62304688 8.74145508 -13.62304688 8.74145508 -11.71875 7.51953125 C-11.04199219 7.07802734 -10.36523438 6.63652344 -9.66796875 6.18164062 C-8.95253906 5.72982422 -8.23710937 5.27800781 -7.5 4.8125 C-6.78457031 4.34908203 -6.06914062 3.88566406 -5.33203125 3.40820312 C-3.56071878 2.2627544 -1.78110873 1.13015589 0 0 Z " fill="#28CA67" transform="translate(192,393)"/>
<path d="M0 0 C4.81791979 3.8513564 8.77569206 7.80579194 12.375 12.8125 C12.8397876 13.45340576 13.3045752 14.09431152 13.78344727 14.75463867 C24.54518492 29.99140897 37.44184909 52.77043843 35 72 C32.59579717 76.900875 29.76422224 79.41737448 25 82 C17.29976675 83.64873415 7.05283361 84.15217527 0.0859375 80.07421875 C-3.25905063 77.69576426 -6.10560044 74.90250712 -9 72 C-10.76565619 70.43165209 -12.53619624 68.86877822 -14.3125 67.3125 C-15.11042969 66.57773437 -15.90835937 65.84296875 -16.73046875 65.0859375 C-18.8276005 63.15845324 -20.96376355 61.29238643 -23.125 59.4375 C-27.28318371 55.822426 -31.15177865 51.94033303 -35 48 C-33.62605547 43.51126078 -31.7401471 41.69479594 -28 38.9375 C-14.78942172 28.45181907 -7.33119262 14.8462396 0 0 Z " fill="#F6E868" transform="translate(347,415)"/>
<path d="M0 0 C1.76868938 -0.01646945 3.53731472 -0.04363881 5.30566406 -0.08203125 C21.93120131 -0.44013891 33.87711728 2.13312185 46.34619141 13.93212891 C50.32430904 18.14606279 56.67431641 26.42898597 56.67431641 32.35009766 C54.77848307 32.20426432 52.88264974 32.05843099 50.98681641 31.91259766 C49.2800421 31.78130733 47.57320215 31.6507872 45.8659668 31.52563477 C44.31411577 31.40134147 42.76381732 31.2569055 41.21508789 31.09838867 C29.21003135 29.97357784 17.15804478 30.15508409 5.11181641 30.16259766 C3.93454987 30.16187256 2.75728333 30.16114746 1.54434204 30.16040039 C-15.82550906 30.16158503 -33.04165497 30.51505749 -50.32568359 32.35009766 C-49.12778399 22.24928992 -42.55803741 14.71960671 -35.01708984 8.29541016 C-24.02398205 0.34973863 -13.03130844 0.08858321 0 0 Z " fill="#677CA9" transform="translate(253.32568359375,49.64990234375)"/>
<path d="M0 0 C3.70750813 0.92687703 5.12812463 2.66505636 7.5 5.625 C7.86771245 8.4637401 7.98630804 10.64320151 7.8125 13.4375 C7.78994141 14.13037109 7.76738281 14.82324219 7.74414062 15.53710938 C7.68562661 17.23401573 7.5959548 18.92979861 7.5 20.625 C8.16 20.295 8.82 19.965 9.5 19.625 C20.42663483 18.95949675 29.68391021 19.66684649 38.5 26.625 C43.17655653 31.23947835 46.76694363 35.58905999 46.875 42.375 C46.72308306 48.45167754 45.01845304 52.73913338 41.02734375 57.3125 C34.09372756 63.86911105 24.42230748 66.99052963 14.9921875 66.8359375 C6.9291648 66.1534873 -0.49630822 63.06834722 -6.5 57.625 C-10.70258897 52.52990244 -13.44607149 47.51908128 -12.96875 40.80078125 C-11.953663 36.08908575 -9.90321465 32.02821465 -6.5 28.625 C-6.77273672 26.61583953 -7.12124293 24.61689713 -7.5 22.625 C-7.7438037 19.77110354 -7.81998973 16.92553474 -7.875 14.0625 C-7.91238281 13.32064453 -7.94976562 12.57878906 -7.98828125 11.81445312 C-8.05610518 7.58299347 -7.86234699 6.08241823 -5.1328125 2.63671875 C-2.5 0.625 -2.5 0.625 0 0 Z " fill="#FEA1AC" transform="translate(318.5,220.375)"/>
<path d="M0 0 C3.81927633 1.20236477 4.5365612 1.60513749 6.375 5.0625 C6.64283605 7.96261728 6.74921207 10.60940674 6.6875 13.5 C6.69072266 14.25087891 6.69394531 15.00175781 6.69726562 15.77539062 C6.65662554 19.97609779 6.28779757 23.22928416 4.375 27.0625 C5.15875 27.949375 5.9425 28.83625 6.75 29.75 C10.5659945 34.39837856 11.97929056 38.56915676 11.80859375 44.59375 C10.78974089 50.3947861 7.59317681 55.17510394 3.1484375 58.95703125 C-6.55889051 65.62879013 -16.07385828 66.50003995 -27.625 65.0625 C-36.60900539 62.34007412 -41.54929122 57.94121048 -46.4375 50.1875 C-48.69518074 44.24623489 -48.14958471 38.77488839 -45.7265625 33.01171875 C-41.78829847 26.04294659 -35.2627907 21.8896731 -27.79296875 19.46875 C-24.88137739 18.9231545 -22.08566398 18.93070949 -19.125 18.9375 C-18.0009375 18.93492187 -16.876875 18.93234375 -15.71875 18.9296875 C-13.1529301 19.03983633 -11.06233573 19.30979338 -8.625 20.0625 C-8.71201172 18.52529297 -8.71201172 18.52529297 -8.80078125 16.95703125 C-8.84769957 15.59639989 -8.89319752 14.23571904 -8.9375 12.875 C-8.97939453 12.20146484 -9.02128906 11.52792969 -9.06445312 10.83398438 C-9.16034515 6.90241151 -8.75301128 5.22911093 -6.33203125 2.078125 C-3.625 0.0625 -3.625 0.0625 0 0 Z " fill="#FEA1AC" transform="translate(194.625,220.9375)"/>
<path d="M0 0 C10.67626378 1.6899114 10.67626378 1.6899114 15.24023438 2.7590332 C25.12632529 5.05038489 34.64233825 5.46365806 44.76977539 5.39111328 C47.43102416 5.37503911 50.0907502 5.39104792 52.75195312 5.41015625 C63.54907861 5.42259836 73.45946815 4.34493836 84 2 C86.16492016 1.59472335 88.3313088 1.19708671 90.5 0.8125 C91.3765625 0.65394531 92.253125 0.49539063 93.15625 0.33203125 C93.7646875 0.22246094 94.373125 0.11289062 95 0 C94.16825918 10.53538378 87.52852764 19.07087743 80 26 C67.99225428 34.91020622 54.80973379 38.16743397 40 37 C26.25947603 34.33536568 15.23540351 27.30568987 7 16 C4.029689 10.9285848 1.20839425 5.79479971 0 0 Z " fill="#FBB09A" transform="translate(208,393)"/>
<path d="M0 0 C3.38256314 0.01839949 6.76485259 0.0205078 10.14746094 0.02026367 C20.63283603 0.03785562 31.05528835 0.07644358 41.49121094 1.20581055 C24.84366331 19.36796115 -12.6789078 27.07117754 -35.50878906 34.20581055 C-36.53625244 34.5304126 -36.53625244 34.5304126 -37.58447266 34.86157227 C-40.76766162 35.82758111 -43.126816 36.20581055 -46.50878906 36.20581055 C-46.13495092 28.18762684 -45.33165744 20.36753506 -44.00878906 12.45581055 C-43.81289185 11.27656006 -43.81289185 11.27656006 -43.61303711 10.07348633 C-42.64425027 4.47673296 -42.64425027 4.47673296 -41.50878906 2.20581055 C-38.83451375 1.70504283 -36.26511537 1.35560378 -33.56347656 1.0925293 C-32.7240451 1.00823166 -31.88461365 0.92393402 -31.01974487 0.83708191 C-20.69379355 -0.09413239 -10.35949351 -0.05822489 0 0 Z " fill="#677CA9" transform="translate(253.5087890625,127.794189453125)"/>
<path d="M0 0 C2.97 0 5.94 0 9 0 C9.61875 1.86978516 9.61875 1.86978516 10.25 3.77734375 C17.37284681 24.9387882 26.36681175 44.46130118 40.94921875 61.58203125 C43.79443222 64.93667342 46.40591429 68.44966308 49 72 C35.04204608 72.72894537 24.77168516 69.18285162 13.9296875 60.3046875 C5.72594171 52.66916653 0.27335537 41.034348 -0.32104492 29.84106445 C-0.4389904 25.30834607 -0.3511818 20.78218114 -0.25 16.25 C-0.22988417 14.66668951 -0.21164247 13.08335406 -0.1953125 11.5 C-0.15176453 7.66603668 -0.08302723 3.83330319 0 0 Z " fill="#28CA67" transform="translate(82,274)"/>
<path d="M0 0 C2.97 0 5.94 0 9 0 C9.1001172 4.62233413 9.17204532 9.24401456 9.21972656 13.8671875 C9.23963732 15.43435686 9.26677635 17.00145397 9.30175781 18.56835938 C9.64247395 34.24130156 6.69489581 47.56482213 -4 59.6875 C-13.80302185 68.88055604 -26.91778 72.41530857 -40 72 C-37.43529452 68.48987368 -34.87384462 65.00483513 -32.01953125 61.72265625 C-16.63913783 43.98897859 -6.83167126 22.26862075 0 0 Z " fill="#71D689" transform="translate(421,274)"/>
<path d="M0 0 C5.63098876 3.00064027 10.88084541 6.18786361 16 10 C13.98803673 21.56878879 7.91615391 30.81139552 1 40 C0.484375 40.6909375 -0.03125 41.381875 -0.5625 42.09375 C-5.77036921 48.60358652 -12.27709584 53.91083834 -20 57 C-23.63 52.71 -27.26 48.42 -31 44 C-28.19854346 41.19854346 -25.81637708 39.03969335 -22.6875 36.75 C-10.76201228 27.45513457 -4.11562504 14.40468764 0 0 Z " fill="#71D689" transform="translate(319,393)"/>
<path d="M0 0 C1.15242188 0.00902344 2.30484375 0.01804688 3.4921875 0.02734375 C4.36101562 0.03894531 5.22984375 0.05054688 6.125 0.0625 C6.11452637 0.96266846 6.10405273 1.86283691 6.09326172 2.7902832 C5.82798093 27.49054115 5.82798093 27.49054115 8.125 52.0625 C-1.21658123 51.07619227 -7.50263633 46.47058777 -13.3671875 39.2421875 C-18.93267198 31.1967462 -20.27288459 22.71002168 -18.875 13.0625 C-17.45169822 8.66098798 -15.89059424 4.60551298 -12.875 1.0625 C-8.56577308 0.04407639 -4.41330751 -0.04503375 0 0 Z " fill="#FAC7BA" transform="translate(78.875,206.9375)"/>
<path d="M0 0 C17.23933959 0.52445488 17.23933959 0.52445488 21.33984375 3.9609375 C22.64080914 6.34142736 23.41964555 8.35375695 24 11 C24.18691406 11.804375 24.37382812 12.60875 24.56640625 13.4375 C26.04206326 22.1585 25.56961875 30.30637916 21 38 C15.55166575 45.40716562 9.96706776 50.91311552 0.76171875 52.58984375 C-0.60533203 52.79287109 -0.60533203 52.79287109 -2 53 C-1.7834375 51.53433594 -1.7834375 51.53433594 -1.5625 50.0390625 C0.63578283 33.41871204 0.1882848 16.72693195 0 0 Z " fill="#FBC7BB" transform="translate(427,206)"/>
<path d="M0 0 C1.4466462 0.95611674 2.86099159 1.96192481 4.25 3 C8.48298657 6.01234457 11.53270202 6.79015073 16.69921875 6.46875 C21.10746103 5.57063612 23.90411459 3.09588541 27 0 C31.03143083 -0.62711146 32.56402878 -0.30610745 35.9375 2.0625 C38 5 38 5 38.3125 8.375 C36.06455607 14.58360703 31.47582706 17.74000715 25.71484375 20.671875 C17.8365238 23.48851936 8.04612104 23.464586 0.375 19.9375 C-3.85906087 17.39419779 -7.73150775 14.47979562 -10 10 C-10.06134653 6.31920806 -9.73139321 4.19332576 -7.8125 1.0625 C-4.89055106 -0.65036662 -3.36932275 -0.56155379 0 0 Z " fill="#050404" transform="translate(242,233)"/>
<path d="M0 0 C-0.83758668 10.60943124 -7.53002325 18.94087197 -15 26 C-20.04839028 30.11514912 -20.04839028 30.11514912 -23 31 C-26.79406337 29.66780797 -28.30069563 27.51930116 -30.453125 24.2109375 C-31.071875 23.26992188 -31.690625 22.32890625 -32.328125 21.359375 C-32.96234375 20.37453125 -33.5965625 19.3896875 -34.25 18.375 C-34.8996875 17.38242187 -35.549375 16.38984375 -36.21875 15.3671875 C-37.82093803 12.91678227 -39.41422993 10.46104923 -41 8 C-37.00454065 5.80548234 -33.22698834 5.49520248 -28.75 5.125 C-20.97591974 4.38930268 -13.67970301 2.86914488 -6.16015625 0.8046875 C-3 0 -3 0 0 0 Z " fill="#FBC8BB" transform="translate(303,393)"/>
<path d="M0 0 C-1.82644083 4.75954284 -4.04692046 9.31122633 -6.2578125 13.89916992 C-8.91959743 19.54930137 -10.78182003 25.24964004 -12.46875 31.26953125 C-14 34 -14 34 -17.28515625 35.34765625 C-20.5178979 35.91534064 -23.66593944 36.38266218 -26.9375 36.625 C-27.89527344 36.69976562 -28.85304688 36.77453125 -29.83984375 36.8515625 C-30.55269531 36.90054688 -31.26554687 36.94953125 -32 37 C-32.02749868 35.16675453 -32.04661673 33.3333829 -32.0625 31.5 C-32.07410156 30.4790625 -32.08570312 29.458125 -32.09765625 28.40625 C-32.06542969 27.2821875 -32.03320312 26.158125 -32 25 C-32.00918457 24.33556885 -32.01836914 23.6711377 -32.02783203 22.98657227 C-31.9125132 19.94065107 -31.76920777 17.81777059 -29.62719727 15.54052734 C-27.72901838 14.18419845 -25.79995994 13.0510063 -23.75 11.9375 C-23.03505371 11.52193848 -22.32010742 11.10637695 -21.58349609 10.67822266 C-19.40424826 9.42250785 -17.20570637 8.20850383 -15 7 C-13.70527684 6.27033328 -12.41097911 5.53991096 -11.1171875 4.80859375 C-2.43257576 0 -2.43257576 0 0 0 Z " fill="#566E9F" transform="translate(103,156)"/>
<path d="M0 0 C7.311064 2.13760503 13.57492117 6.07517268 20.10449219 9.89990234 C21.72449572 10.84010532 23.36435027 11.74596294 25.0078125 12.64453125 C29.10602446 15.03625302 30.71252588 16.00229572 32.0625 20.6875 C32.08482975 22.12497753 32.05853143 23.56354104 32 25 C32.0103125 25.97582031 32.020625 26.95164063 32.03125 27.95703125 C32.05880323 30.64002685 32.04438151 33.31738408 32 36 C30.50044115 36.0553116 29.00024516 36.09336832 27.5 36.125 C26.6646875 36.14820313 25.829375 36.17140625 24.96875 36.1953125 C23.9890625 36.13085938 23.009375 36.06640625 22 36 C21.01797607 35.94815552 21.01797607 35.94815552 20.01611328 35.89526367 C17.67157277 35.58075214 16.05898343 35.17920627 14 34 C11.95941415 30.91058695 10.96248977 27.58207263 9.875 24.0625 C9.22227739 22.14893919 8.56345826 20.23744665 7.8984375 18.328125 C7.58229492 17.40837891 7.26615234 16.48863281 6.94042969 15.54101562 C5.39846916 11.37467991 3.31493535 7.67144805 1.03125 3.86328125 C0 2 0 2 0 0 Z " fill="#6579A5" transform="translate(409,156)"/>
<path d="M0 0 C-0.56203125 0.59167969 -1.1240625 1.18335938 -1.703125 1.79296875 C-4.92956249 6.29790953 -6.73198073 11.17542489 -8.75 16.3125 C-9.16121094 17.33923828 -9.57242188 18.36597656 -9.99609375 19.42382812 C-11.00507325 21.94627687 -12.00607165 24.47159136 -13 27 C-11.68 27.66 -10.36 28.32 -9 29 C-18.24 29.66 -27.48 30.32 -37 31 C-35.1318708 19.79122482 -28.09542326 11.57405049 -19 5 C-6.32866433 -2.10955478 -6.32866433 -2.10955478 0 0 Z " fill="#576FA1" transform="translate(240,51)"/>
<path d="M0 0 C3.82199213 1.20321974 4.52738875 1.60850864 6.375 5.0625 C6.69546482 7.96977992 6.83975233 10.59886549 6.8125 13.5 C6.83248047 14.25087891 6.85246094 15.00175781 6.87304688 15.77539062 C6.86963048 19.65982747 6.61870297 21.65878471 4.56640625 25.05859375 C2.375 27.0625 2.375 27.0625 -1.125 27.6875 C-4.625 27.0625 -4.625 27.0625 -6.80859375 25.0546875 C-9.21198736 21.09554877 -9.25419275 18.10545338 -9.1875 13.5625 C-9.21134766 12.81613281 -9.23519531 12.06976563 -9.25976562 11.30078125 C-9.24865463 7.1156401 -8.93792759 5.47285344 -6.31640625 2.03515625 C-3.625 0.0625 -3.625 0.0625 0 0 Z " fill="#050404" transform="translate(194.625,220.9375)"/>
<path d="M0 0 C3.72868533 0.93217133 5.12197893 2.63392588 7.5 5.625 C8.19438721 8.48308906 8.15604644 11.1972492 8.0625 14.125 C8.07345703 14.87136719 8.08441406 15.61773437 8.09570312 16.38671875 C8.04456703 20.23897111 7.72490674 22.25450847 5.68359375 25.6171875 C3.5 27.625 3.5 27.625 0 28.25 C-3.5 27.625 -3.5 27.625 -5.68359375 25.6171875 C-8.08698736 21.65804877 -8.12919275 18.66795338 -8.0625 14.125 C-8.08634766 13.37863281 -8.11019531 12.63226563 -8.13476562 11.86328125 C-8.1235513 7.63921824 -7.84221981 6.05544396 -5.12109375 2.6328125 C-2.5 0.625 -2.5 0.625 0 0 Z " fill="#050404" transform="translate(318.5,220.375)"/>
</svg>
